# xmcd
#
# Track frame offsets:
#	150
#	13895
#	41575
#	56510
#	78022
#	97027
#	109672
#	121287
#	146325
#	157500
#	169652
#
# Disc length: 2512 seconds
#
# Revision: 1
# Processed by: cddbd v1.4PL0 Copyright (c) Steve Scherf et al.
# Submitted via: audiograbber 1.80.04
#
DISCID=7c09ce0b
DTITLE=Earl Wilson - Blue for All Seasons
DYEAR=1995
DGENRE=Blues
TTITLE0=I Got A Brand New Love
TTITLE1=We Couldn't Make It
TTITLE2=Suckin' Bones
TTITLE3=Sweet Running Water Man
TTITLE4=I'm Pround And Strong
TTITLE5=It's Too Good To Be True
TTITLE6=Something To Hold On To
TTITLE7=You Can Make It If Your Try
TTITLE8=Stay In Touch
TTITLE9=Blues For Erling
TTITLE10=Them Shoes Hit Me In The Face
EXTD=
EXTT0=
EXTT1=
EXTT2=
EXTT3=
EXTT4=
EXTT5=
EXTT6=
EXTT7=
EXTT8=
EXTT9=
EXTT10=
PLAYORDER=
